<svg width="232" height="40" viewBox="0 0 232 40" fill="none" xmlns="http://www.w3.org/2000/svg">
<g clip-path="url(#clip0)">
<path d="M77.26 9.2C79.368 9.2 81.1927 9.55133 82.734 10.254C84.298 10.9567 85.4993 11.954 86.338 13.246C87.1767 14.538 87.596 16.068 87.596 17.836C87.596 19.5813 87.1767 21.1113 86.338 22.426C85.4993 23.718 84.298 24.7153 82.734 25.418C81.1927 26.098 79.368 26.438 77.26 26.438H72.466V33H66.958V9.2H77.26ZM76.954 21.95C78.6087 21.95 79.8667 21.5987 80.728 20.896C81.5893 20.1707 82.02 19.1507 82.02 17.836C82.02 16.4987 81.5893 15.4787 80.728 14.776C79.8667 14.0507 78.6087 13.688 76.954 13.688H72.466V21.95H76.954ZM97.7615 14.436C100.595 14.436 102.771 15.116 104.289 16.476C105.808 17.8133 106.567 19.842 106.567 22.562V33H101.603V30.722C100.606 32.422 98.7475 33.272 96.0275 33.272C94.6221 33.272 93.3981 33.034 92.3555 32.558C91.3355 32.082 90.5535 31.4247 90.0095 30.586C89.4655 29.7473 89.1935 28.7953 89.1935 27.73C89.1935 26.03 89.8281 24.6927 91.0975 23.718C92.3895 22.7433 94.3728 22.256 97.0475 22.256H101.263C101.263 21.1 100.912 20.216 100.209 19.604C99.5068 18.9693 98.4528 18.652 97.0475 18.652C96.0728 18.652 95.1095 18.8107 94.1575 19.128C93.2281 19.4227 92.4348 19.8307 91.7775 20.352L89.8735 16.646C90.8708 15.9433 92.0608 15.3993 93.4435 15.014C94.8488 14.6287 96.2881 14.436 97.7615 14.436ZM97.3535 29.702C98.2601 29.702 99.0648 29.498 99.7675 29.09C100.47 28.6593 100.969 28.036 101.263 27.22V25.35H97.6255C95.4495 25.35 94.3615 26.064 94.3615 27.492C94.3615 28.172 94.6221 28.716 95.1435 29.124C95.6875 29.5093 96.4241 29.702 97.3535 29.702ZM122.875 23.48C123.963 23.82 124.802 24.3413 125.391 25.044C126.003 25.7467 126.309 26.5853 126.309 27.56C126.309 28.716 125.912 29.736 125.119 30.62C124.326 31.4813 123.238 32.15 121.855 32.626C120.472 33.102 118.908 33.34 117.163 33.34C115.735 33.34 114.33 33.1927 112.947 32.898C111.564 32.6033 110.284 32.1613 109.105 31.572L110.533 27.866C112.46 28.7953 114.59 29.26 116.925 29.26C118.172 29.26 119.146 29.0787 119.849 28.716C120.574 28.3307 120.937 27.798 120.937 27.118C120.937 26.5287 120.688 26.0867 120.189 25.792C119.69 25.4747 118.965 25.316 118.013 25.316H114.273V22.018H117.537C118.466 22.018 119.18 21.8707 119.679 21.576C120.178 21.2813 120.427 20.8507 120.427 20.284C120.427 19.6947 120.11 19.2413 119.475 18.924C118.863 18.6067 117.979 18.448 116.823 18.448C115.055 18.448 113.128 18.8673 111.043 19.706L109.751 16.034C112.29 14.9233 114.76 14.368 117.163 14.368C118.818 14.368 120.291 14.572 121.583 14.98C122.898 15.388 123.929 15.9887 124.677 16.782C125.425 17.5527 125.799 18.4593 125.799 19.502C125.799 20.3633 125.538 21.1453 125.017 21.848C124.496 22.528 123.782 23.072 122.875 23.48ZM138.735 33.272C136.809 33.272 135.075 32.8753 133.533 32.082C132.015 31.266 130.825 30.144 129.963 28.716C129.102 27.288 128.671 25.6673 128.671 23.854C128.671 22.0407 129.102 20.42 129.963 18.992C130.825 17.564 132.015 16.4533 133.533 15.66C135.075 14.844 136.809 14.436 138.735 14.436C140.662 14.436 142.385 14.844 143.903 15.66C145.422 16.4533 146.612 17.564 147.473 18.992C148.335 20.42 148.765 22.0407 148.765 23.854C148.765 25.6673 148.335 27.288 147.473 28.716C146.612 30.144 145.422 31.266 143.903 32.082C142.385 32.8753 140.662 33.272 138.735 33.272ZM138.735 28.92C140.095 28.92 141.206 28.4667 142.067 27.56C142.951 26.6307 143.393 25.3953 143.393 23.854C143.393 22.3127 142.951 21.0887 142.067 20.182C141.206 19.2527 140.095 18.788 138.735 18.788C137.375 18.788 136.253 19.2527 135.369 20.182C134.485 21.0887 134.043 22.3127 134.043 23.854C134.043 25.3953 134.485 26.6307 135.369 27.56C136.253 28.4667 137.375 28.92 138.735 28.92ZM170.263 33V22.052L164.789 31.232H162.545L157.207 22.018V33H152.413V14.708H157.955L163.803 25.282L170.025 14.708H174.989L175.057 33H170.263ZM191.018 33.272C187.845 33.272 185.374 32.3653 183.606 30.552C181.838 28.7387 180.954 26.132 180.954 22.732V9.2H184.354V22.596C184.354 27.696 186.587 30.246 191.052 30.246C193.228 30.246 194.894 29.6227 196.05 28.376C197.206 27.1067 197.784 25.18 197.784 22.596V9.2H201.082V22.732C201.082 26.1547 200.198 28.7727 198.43 30.586C196.662 32.3767 194.191 33.272 191.018 33.272ZM222.718 27.05H210.07L207.452 33H203.95L214.728 9.2H218.094L228.906 33H225.336L222.718 27.05ZM221.528 24.33L216.394 12.668L211.26 24.33H221.528Z" fill="#29B8FF"/>
<path fill-rule="evenodd" clip-rule="evenodd" d="M14 8H10V18H0V22H10V32H14V22H24V18H14V8Z" fill="#FDB806"/>
<path fill-rule="evenodd" clip-rule="evenodd" d="M46 8H42V18H32V22H42V32H46V22H56V18H46V8Z" fill="#FDB806"/>
</g>
<defs>
<clipPath id="clip0">
<rect width="232" height="40" fill="white"/>
</clipPath>
</defs>
</svg>
